<svg width="14" height="19" viewBox="0 0 14 19" fill="none" xmlns="http://www.w3.org/2000/svg">
<path fill-rule="evenodd" clip-rule="evenodd" d="M11.5793 2H1.57934C1.16513 2 0.82934 1.66421 0.82934 1.25C0.82934 0.835786 1.16513 0.5 1.57934 0.5H11.5793C11.9936 0.5 12.3293 0.835786 12.3293 1.25C12.3293 1.66421 11.9936 2 11.5793 2ZM12.4093 10.7564C12.6089 10.7564 12.8001 10.8371 12.9393 10.98C13.2318 11.2728 13.2318 11.7472 12.9393 12.04L7.10934 17.86C6.81652 18.1525 6.34216 18.1525 6.04934 17.86L0.21934 12.04C-0.0731133 11.7472 -0.0731133 11.2728 0.21934 10.98C0.358628 10.8371 0.549753 10.7564 0.74934 10.7564C0.948928 10.7564 1.14005 10.8371 1.27934 10.98L5.82934 15.52V4.3C5.82934 3.88579 6.16513 3.55 6.57934 3.55C6.99355 3.55 7.32934 3.88579 7.32934 4.3V15.52L11.8793 10.98C12.0186 10.8371 12.2098 10.7564 12.4093 10.7564Z" fill="#1D1D1B"/>
</svg>
