<svg width="21" height="18" viewBox="0 0 21 18" fill="none" xmlns="http://www.w3.org/2000/svg">
<path d="M10.1 17.8C9.6 17.8 9 17.6 8.6 17.2C2.1 11.5 2 11.4 2 11.3L1.9 11.2C0.699998 10 0 8.3 0 6.6V6.4C0.1 2.8 3 0 6.6 0C7.7 0 9.2 0.6 10.1 1.8C11 0.6 12.6 0 13.7 0C17.3 0 20.1 2.8 20.3 6.4V6.6C20.3 8.4 19.6 10 18.4 11.3L18.3 11.4C18.2 11.5 17.4 12.2 11.7 17.3C11.2 17.6 10.7 17.8 10.1 17.8ZM3.5 11C3.9 11.4 5.9 12.8 9.6 16C9.9 16.3 10.3 16.3 10.6 16C14.4 12.6 16.6 10.7 17.1 10.3L17.2 10.2C18.2 9.2 18.7 7.9 18.7 6.6V6.4C18.6 3.6 16.4 1.5 13.6 1.5C12.9 1.5 11.5 2 11 3.1C10.8 3.5 10.4 3.7 10 3.7C9.6 3.7 9.2 3.5 9 3.1C8.5 2.1 7.2 1.5 6.4 1.5C3.7 1.5 1.4 3.7 1.3 6.4V6.7C1.3 8 1.9 9.3 2.8 10.2L3.5 11Z" fill="#1D1D1B"/>
</svg>
