<svg width="17" height="18" viewBox="0 0 17 18" fill="none" xmlns="http://www.w3.org/2000/svg">
<path fill-rule="evenodd" clip-rule="evenodd" d="M11.91 1.40997C12.3653 1.14384 12.8827 1.00242 13.41 0.999966C15.0669 0.999966 16.41 2.34311 16.41 3.99997V13.54C16.4107 14.6121 15.8392 15.6031 14.9108 16.1395C13.9825 16.6759 12.8385 16.676 11.91 16.14L3.66 11.38C3.03821 11.0132 2.56954 10.4344 2.34 9.74997V17C2.34 17.4142 2.00421 17.75 1.59 17.75C1.17578 17.75 0.839996 17.4142 0.839996 17V1.08997C0.839996 0.675752 1.17578 0.339966 1.59 0.339966C2.00421 0.339966 2.34 0.675752 2.34 1.08997V7.80997C2.56954 7.12551 3.03821 6.54678 3.66 6.17997L11.91 1.40997ZM13.41 15.04C14.24 15.0345 14.91 14.36 14.91 13.53V3.99997C14.8991 3.17772 14.2323 2.51534 13.41 2.50997C13.1457 2.51126 12.8866 2.58381 12.66 2.71997L4.41 7.47997C3.94496 7.74766 3.65833 8.24338 3.65833 8.77997C3.65833 9.31655 3.94496 9.81227 4.41 10.08L12.66 14.83C12.8866 14.9661 13.1457 15.0387 13.41 15.04Z" fill="#1D1D1B"/>
</svg>
