<svg width="6" height="16" viewBox="0 0 6 16" fill="none" xmlns="http://www.w3.org/2000/svg">
<path d="M0.75 1.5H4.75C5.16421 1.5 5.5 1.16421 5.5 0.75C5.5 0.335786 5.16421 0 4.75 0H0.75C0.335786 0 0 0.335786 0 0.75C0 1.16421 0.335786 1.5 0.75 1.5Z" fill="#1D1D1B"/>
<path d="M4.75 7H0.75C0.335786 7 0 7.33579 0 7.75C0 8.16421 0.335786 8.5 0.75 8.5H4.75C5.16421 8.5 5.5 8.16421 5.5 7.75C5.5 7.33579 5.16421 7 4.75 7V7Z" fill="#1D1D1B"/>
<path d="M4.75 14H0.75C0.335786 14 0 14.3358 0 14.75C0 15.1642 0.335786 15.5 0.75 15.5H4.75C5.16421 15.5 5.5 15.1642 5.5 14.75C5.5 14.3358 5.16421 14 4.75 14V14Z" fill="#1D1D1B"/>
</svg>
