<svg width="16" height="18" viewBox="0 0 16 18" fill="none" xmlns="http://www.w3.org/2000/svg">
<path fill-rule="evenodd" clip-rule="evenodd" d="M14.25 1.04999C14.25 0.635775 14.5858 0.299989 15 0.299989C15.2117 0.280402 15.4219 0.350353 15.5796 0.492867C15.7373 0.635381 15.8281 0.837431 15.83 1.04999V17C15.83 17.4142 15.4942 17.75 15.08 17.75C14.6658 17.75 14.33 17.4142 14.33 17V9.70999C14.1037 10.3992 13.6298 10.98 13 11.34L4.71 16.09C4.25878 16.3571 3.74434 16.4986 3.22 16.5C1.56315 16.5 0.220001 15.1568 0.220001 13.5V3.99999C0.220001 2.34313 1.56315 0.999989 3.22 0.999989C3.74158 0.992228 4.25584 1.12338 4.71 1.37999L13 6.13999C13.5997 6.51468 14.0437 7.09362 14.25 7.76999V1.04999ZM4 14.8L12.21 9.99999L12.25 10.04C12.715 9.77229 13.0017 9.27658 13.0017 8.73999C13.0017 8.2034 12.715 7.70769 12.25 7.43999L4 2.67999C3.76604 2.53542 3.49492 2.46242 3.22 2.46999C2.81687 2.47263 2.4313 2.63532 2.14812 2.92225C1.86493 3.20918 1.70734 3.59686 1.71 3.99999V13.5C1.71259 13.9066 1.87803 14.2953 2.16931 14.579C2.46059 14.8628 2.85343 15.018 3.26 15.01C3.52136 15.0099 3.77756 14.9372 4 14.8Z" fill="#1D1D1B"/>
</svg>
