<svg width="20" height="20" viewBox="0 0 20 20" fill="none" xmlns="http://www.w3.org/2000/svg">
<path d="M7.5 6.25C7.08804 6.25539 6.75539 6.58804 6.75 7V13C6.75 13.4142 7.08579 13.75 7.5 13.75C7.91421 13.75 8.25 13.4142 8.25 13V7C8.24461 6.58804 7.91196 6.25539 7.5 6.25V6.25Z" fill="white"/>
<path d="M12.5 6.25C12.088 6.25539 11.7554 6.58804 11.75 7V13C11.75 13.4142 12.0858 13.75 12.5 13.75C12.9142 13.75 13.25 13.4142 13.25 13V7C13.2446 6.58804 12.912 6.25539 12.5 6.25V6.25Z" fill="white"/>
<path fill-rule="evenodd" clip-rule="evenodd" d="M6 0H14C17.3137 0 20 2.68629 20 6V14C20 17.3137 17.3137 20 14 20H6C2.68629 20 0 17.3137 0 14V6C0 2.68629 2.68629 0 6 0ZM17.0919 17.0919C17.9113 16.2725 18.3681 15.1588 18.36 14V6C18.3681 4.84121 17.9113 3.72753 17.0919 2.90812C16.2725 2.08871 15.1588 1.63194 14 1.64H6C4.84121 1.63194 3.72754 2.08871 2.90813 2.90812C2.08872 3.72753 1.63195 4.84121 1.64 6V14C1.63195 15.1588 2.08872 16.2725 2.90813 17.0919C3.72754 17.9113 4.84121 18.3681 6 18.36H14C15.1588 18.3681 16.2725 17.9113 17.0919 17.0919Z" fill="white"/>
</svg>
