<svg width="14" height="15" viewBox="0 0 14 15" fill="none" xmlns="http://www.w3.org/2000/svg">
<path fill-rule="evenodd" clip-rule="evenodd" d="M5.10999 0.509956L12.36 4.69996C13.2852 5.23665 13.8547 6.22535 13.8547 7.29496C13.8547 8.36456 13.2852 9.35326 12.36 9.88996L5.10999 14.08C4.18149 14.616 3.03748 14.6158 2.10915 14.0795C1.18082 13.5431 0.6093 12.5521 0.609986 11.48V3.10996C0.6093 2.03782 1.18082 1.0468 2.10915 0.510437C3.03748 -0.0259309 4.18149 -0.0261142 5.10999 0.509956ZM4.20999 12.52L11.46 8.33996C11.833 8.12699 12.0624 7.72951 12.06 7.29996C12.0639 6.8674 11.8346 6.46623 11.46 6.24996L4.20999 2.06996C4.02866 1.96096 3.82155 1.90228 3.60999 1.89996C2.94173 1.89996 2.39999 2.44169 2.39999 3.10996V11.48C2.39999 11.8009 2.52747 12.1086 2.75439 12.3356C2.98131 12.5625 3.28908 12.69 3.60999 12.69C3.82155 12.6876 4.02866 12.629 4.20999 12.52Z" fill="white"/>
</svg>
