<svg width="18" height="17" viewBox="0 0 18 17" fill="none" xmlns="http://www.w3.org/2000/svg">
<path d="M6.76999 1.71021H0.769989C0.355775 1.71021 0.019989 2.04599 0.019989 2.46021C0.019989 2.87442 0.355775 3.21021 0.769989 3.21021H6.76999C7.1842 3.21021 7.51999 2.87442 7.51999 2.46021C7.51999 2.04599 7.1842 1.71021 6.76999 1.71021V1.71021Z" fill="#1D1D1B"/>
<path fill-rule="evenodd" clip-rule="evenodd" d="M2.67999 9.1002H0.769989C0.355775 9.1002 0.019989 8.76442 0.019989 8.3502C0.019989 7.93599 0.355775 7.60021 0.769989 7.60021H2.67999C3.04482 6.57864 4.09183 5.96779 5.16067 6.15292C6.22951 6.33805 7.01008 7.26545 7.01008 8.3502C7.01008 9.43496 6.22951 10.3624 5.16067 10.5475C4.09183 10.7326 3.04482 10.1218 2.67999 9.1002ZM4.76999 9.0802C5.17316 9.0802 5.49999 8.75337 5.49999 8.3502C5.49999 7.94704 5.17316 7.6202 4.76999 7.6202C4.57638 7.6202 4.3907 7.69712 4.2538 7.83402C4.1169 7.97092 4.03999 8.1566 4.03999 8.3502C4.03999 8.75337 4.36682 9.0802 4.76999 9.0802Z" fill="#1D1D1B"/>
<path fill-rule="evenodd" clip-rule="evenodd" d="M12.49 3.17026C12.1484 3.97715 11.3659 4.50922 10.49 4.53026V4.46026C9.33037 4.4647 8.36087 3.57964 8.25992 2.42442C8.15896 1.26919 8.96025 0.229385 10.1031 0.0326173C11.2459 -0.16415 12.3488 0.547797 12.64 1.67026C12.6831 1.66461 12.7268 1.66461 12.77 1.67026H16.72C17.1342 1.67026 17.47 2.00605 17.47 2.42026C17.47 2.83448 17.1342 3.17026 16.72 3.17026H12.72C12.6436 3.17978 12.5664 3.17978 12.49 3.17026ZM11.2237 2.22723C11.2059 1.83559 10.882 1.52789 10.49 1.53026V1.57026C10.2891 1.57254 10.0981 1.65748 9.96186 1.80507C9.82562 1.95267 9.75621 2.14987 9.76998 2.35026C9.81833 2.73931 10.1653 3.02071 10.556 2.98765C10.9466 2.95459 11.2414 2.61887 11.2237 2.22723Z" fill="#1D1D1B"/>
<path d="M6.77 13.8103H0.77C0.344741 13.8103 0 14.155 0 14.5803C0 15.0056 0.344741 15.3503 0.77 15.3503H6.77C7.18421 15.3503 7.52 15.0145 7.52 14.6003C7.52 14.1861 7.18421 13.8503 6.77 13.8503V13.8103Z" fill="#1D1D1B"/>
<path fill-rule="evenodd" clip-rule="evenodd" d="M12.9 13.8102H16.77V13.8502C17.1842 13.8502 17.52 14.186 17.52 14.6002C17.52 15.0144 17.1842 15.3502 16.77 15.3502H12.77C12.3125 16.3226 11.2242 16.8277 10.1863 16.5494C9.14827 16.2711 8.45869 15.2892 8.54908 14.2184C8.63948 13.1476 9.4839 12.2952 10.5538 12.1949C11.6238 12.0945 12.612 12.7749 12.9 13.8102ZM10.0885 14.6866C10.2046 14.959 10.4739 15.1343 10.77 15.1302C11.1693 15.1247 11.4901 14.7995 11.49 14.4002C11.49 14.104 11.311 13.8373 11.037 13.7249C10.763 13.6125 10.4483 13.6768 10.2403 13.8877C10.0323 14.0985 9.97235 14.4141 10.0885 14.6866Z" fill="#1D1D1B"/>
<path d="M16.77 7.60022H8.76999C8.35578 7.60022 8.01999 7.93601 8.01999 8.35022C8.01999 8.76443 8.35578 9.10022 8.76999 9.10022H16.77C17.1842 9.10022 17.52 8.76443 17.52 8.35022C17.52 7.93601 17.1842 7.60022 16.77 7.60022Z" fill="#1D1D1B"/>
</svg>
