<svg width="21" height="21" viewBox="0 0 21 21" fill="none" xmlns="http://www.w3.org/2000/svg">
<path d="M7.51562 6.62451C7.10366 6.6299 6.77101 6.96255 6.76562 7.37451V13.3745C6.76562 13.7887 7.10141 14.1245 7.51562 14.1245C7.92984 14.1245 8.26562 13.7887 8.26562 13.3745V7.37451C8.26024 6.96255 7.92759 6.6299 7.51562 6.62451V6.62451Z" fill="#0B1C3F"/>
<path d="M12.5156 6.62451C12.1037 6.6299 11.771 6.96255 11.7656 7.37451V13.3745C11.7656 13.7887 12.1014 14.1245 12.5156 14.1245C12.9298 14.1245 13.2656 13.7887 13.2656 13.3745V7.37451C13.2602 6.96255 12.9276 6.6299 12.5156 6.62451V6.62451Z" fill="#0B1C3F"/>
<path fill-rule="evenodd" clip-rule="evenodd" d="M6.01562 0.374512H14.0156C17.3293 0.374512 20.0156 3.0608 20.0156 6.37451V14.3745C20.0156 17.6882 17.3293 20.3745 14.0156 20.3745H6.01562C2.70192 20.3745 0.015625 17.6882 0.015625 14.3745V6.37451C0.015625 3.0608 2.70192 0.374512 6.01562 0.374512ZM17.1075 17.4664C17.9269 16.647 18.3837 15.5333 18.3756 14.3745V6.37451C18.3837 5.21572 17.9269 4.10205 17.1075 3.28263C16.2881 2.46322 15.1744 2.00645 14.0156 2.01451H6.01563C4.85683 2.00645 3.74316 2.46322 2.92375 3.28263C2.10434 4.10205 1.64757 5.21572 1.65563 6.37451V14.3745C1.64757 15.5333 2.10434 16.647 2.92375 17.4664C3.74316 18.2858 4.85683 18.7426 6.01563 18.7345H14.0156C15.1744 18.7426 16.2881 18.2858 17.1075 17.4664Z" fill="#0B1C3F"/>
</svg>
