<svg width="23" height="22" viewBox="0 0 23 22" fill="none" xmlns="http://www.w3.org/2000/svg">
<path d="M11.0241 0.975527C11.1731 0.513485 11.8269 0.513486 11.9759 0.975527L14.18 7.80984C14.2467 8.01677 14.4395 8.15685 14.6569 8.15637L21.8378 8.14068C22.3233 8.13961 22.5253 8.76133 22.1319 9.04582L16.3132 13.254C16.1371 13.3814 16.0634 13.608 16.1311 13.8147L18.365 20.6393C18.516 21.1007 17.9872 21.4849 17.595 21.1987L11.7948 16.9652C11.6192 16.837 11.3808 16.837 11.2052 16.9652L5.40496 21.1987C5.01283 21.4849 4.48397 21.1007 4.63499 20.6393L6.86895 13.8147C6.93659 13.608 6.86294 13.3814 6.68677 13.254L0.868053 9.04582C0.474672 8.76133 0.676679 8.13961 1.16215 8.14068L8.34308 8.15637C8.5605 8.15685 8.7533 8.01677 8.82004 7.80984L11.0241 0.975527Z" fill="#FFFF00"/>
</svg>
